<?xml version="1.0" encoding="UTF-8"?>
<svg width="26px" height="28px" viewBox="0 0 26 28" version="1.1" xmlns="http://www.w3.org/2000/svg" xmlns:xlink="http://www.w3.org/1999/xlink">
    <!-- Generator: Sketch 63.1 (92452) - https://sketch.com -->
    <title>home-normal</title>
    <desc>Created with Sketch.</desc>
    <g id="后台管理系统设计规范" stroke="none" stroke-width="1" fill="none" fill-rule="evenodd">
        <g id="02WIN60-013-Design-Template-2" transform="translate(-1333.000000, -1828.000000)" fill="#666666">
            <g id="分组-3" transform="translate(269.000000, 1619.000000)">
                <g id="分组" transform="translate(0.000000, 67.000000)">
                    <path d="M1089.64264,158.208385 L1078.45252,169.417775 C1077.62852,170.194075 1076.37448,170.194075 1075.55049,169.417775 L1064.35736,158.208385 C1063.91228,157.792063 1063.8792,157.081498 1064.27917,156.618222 L1064.27917,156.618222 C1064.67914,156.154947 1065.3648,156.120514 1065.80687,156.536836 L1077,167.746227 L1088.19313,156.536836 C1088.63821,156.120514 1089.32086,156.154947 1089.72083,156.618222 L1089.72083,156.618222 C1090.1208,157.081498 1090.08772,157.792063 1089.64264,158.208385 Z M1086.6534,154.051425 L1086.6534,154.051425 C1086.05494,154.051425 1085.57077,153.547457 1085.57077,152.924539 L1085.57077,144.253773 L1081.27035,144.253773 L1081.27035,151.76635 C1081.27035,153.012186 1080.302,154.020123 1079.1051,154.020123 L1074.8949,154.020123 C1073.698,154.020123 1072.72965,153.012186 1072.72965,151.76635 L1072.72965,144.253773 L1068.42923,144.253773 L1068.42923,152.924539 C1068.42923,153.547457 1067.94506,154.051425 1067.3466,154.051425 L1067.3466,154.051425 C1066.74815,154.051425 1066.26398,153.547457 1066.26398,152.924539 L1066.26398,144.253773 C1066.26398,143.007937 1067.23233,142 1068.42923,142 L1085.57077,142 C1086.76767,142 1087.73602,143.007937 1087.73602,144.253773 L1087.73602,152.924539 C1087.73602,153.547457 1087.25185,154.051425 1086.6534,154.051425 Z M1074.8949,151.76635 L1079.1051,151.76635 L1079.1051,144.253773 L1074.8949,144.253773 L1074.8949,151.76635 Z" id="home-normal" transform="translate(1077.000000, 156.000000) scale(1, -1) translate(-1077.000000, -156.000000) "></path>
                </g>
            </g>
        </g>
    </g>
</svg>